<svg xmlns="http://www.w3.org/2000/svg" width="3000" height="1636"><path fill="#000000" d="M1159.26 246.872h11.51c6.7-.01 13.4-.01 20.09 0 9.96 0 19.92 0 29.88-.01h53.38q23.355.015 46.71 0h15.74c39.36 0 78.73 0 118.1.01h104.82c39.3-.01 78.61-.01 117.91-.01h15.71c15.56.01 31.11 0 46.67 0 17.7 0 35.39 0 53.09.01 9.89 0 19.78 0 29.67-.01 6.62 0 13.24 0 19.86.01h11.28c42.21-.04 42.21-.04 58.38 2.82 1 .17 2 .34 3.03.52 9.61 1.76 18.76 4.41 27.91 7.79l2.16.79c30.59 11.46 55.08 30.06 77.84 53.21v2h2c39.56 47.75 48.18 101.04 48.14 161.15-.01 3.93 0 7.86 0 11.78.01 6.87.01 13.74.01 20.6v30.64c.01 19.3.02 38.61.02 57.91v44.73c0 4.3.01 8.6.01 12.9v3.24c0 30.05.01 60.09.01 90.14v31c0 35.83 0 71.66.02 107.49.01 40.3.02 80.6.02 120.9v16.11c0 17 .01 34.01.01 51.01.01 17.1.01 34.2.01 51.3-.01 10.15 0 20.29.01 30.43 0 6.8 0 13.59-.01 20.39 0 3.85 0 7.71.01 11.57.02 14.02-.09 27.99-1.14 41.98-.07 1.02-.15 2.04-.23 3.09-3.51 41.46-22.01 79.42-50.11 109.65-1.78 1.99-1.78 1.99-3.78 4.99h-2v2h-2v2c-3.09 2.56-6.2 5.1-9.31 7.63-1.13.91-2.25 1.83-3.37 2.75-8.08 6.57-16.26 12.45-25.32 17.62-.57.33-1.15.66-1.74 1-28.8 16.52-59.69 22.87-92.59 23.56-.93.03-1.86.05-2.81.07-28.77.61-57.54.51-86.31.5h-26.22c-17.1.01-34.21.01-51.32 0h-60.07c-37.88.01-75.77 0-113.65 0q-50.385-.015-100.77 0c-37.84 0-75.69.01-113.53 0h-60q-25.515.015-51.03 0h-58.42c-14.09.01-28.16-.1-42.24-.57-1.17-.03-2.34-.07-3.54-.11-44.69-1.63-85.46-19.19-118.4-49.31-2.06-1.87-4.16-3.66-6.3-5.45-27.12-23.88-45.23-58.9-53.31-93.75-.15-.65-.3-1.3-.46-1.96-2.94-13.72-3.65-27.73-3.91-41.72-.01-.87-.03-1.74-.05-2.63-.59-27.81-.47-55.62-.46-83.43v-25.59c-.01-16.71-.01-33.41-.01-50.12.01-14.62.01-29.25.01-43.87v-14.84c-.01-37.07 0-74.13 0-111.2.01-32.8.01-65.61 0-98.42-.01-36.99-.01-73.98 0-110.98v-14.82c0-14.6 0-29.19-.01-43.79 0-16.63 0-33.26.01-49.9v-25.38c-.02-58.21-.02-58.21.4-84.82.03-2.01.06-4.03.08-6.05.16-13.04 1.42-25.57 3.65-38.42.23-1.37.45-2.73.68-4.1 6.95-41.15 31.05-77.28 60.32-105.9h2v-2c21.03-17.05 43.14-30.53 69-39 1.13-.39 2.26-.77 3.42-1.17 7.32-2.32 14.77-3.72 22.33-5.02.92-.17 1.84-.33 2.79-.51 21.55-3.46 43.96-2.45 65.72-2.43M1949 397.002c-8.74 11.61-17.39 23.29-26 35-2.44 3.31-4.87 6.62-7.31 9.94-.59.8-1.18 1.6-1.79 2.42-3.13 4.25-6.28 8.49-9.46 12.7-3.65 4.85-7.21 9.76-10.75 14.69-5.68 7.89-11.47 15.69-17.33 23.45-2.02 2.68-4.04 5.36-6.05 8.05-2.12 2.83-4.24 5.66-6.37 8.49-8.56 11.37-16.98 22.84-25.38 34.32a1789 1789 0 0 1-13.24 17.84c-5.89 7.87-11.67 15.83-17.44 23.79-4.23 5.82-8.55 11.56-12.88 17.31-6.98 9.27-13.9 18.57-20.77 27.91-3.84 5.22-7.71 10.41-11.6 15.59-3.85 5.11-7.65 10.25-11.4 15.43-7.83 10.78-15.78 21.48-23.79 32.13-5.26 6.99-10.43 14.04-15.53 21.15-4.67 6.5-9.48 12.9-14.3 19.3-4.83 6.41-9.55 12.88-14.22 19.4-3.4 4.75-6.87 9.43-10.39 14.09v2h-2c-.56.79-1.12 1.58-1.69 2.39-9.82 13.83-19.85 27.51-30.24 40.92-2.44 3.17-4.78 6.4-7.07 9.69-4-1-4-1-5-2.4-5.91-8.23-11.84-16.45-17.94-24.54-9.07-12.04-18.01-24.19-26.81-36.44-4.42-6.15-8.96-12.18-13.6-18.17-8.79-11.39-17.24-23.01-25.12-35.05-4.2-6.28-8.9-12.9-16.15-15.78-.72-.29-1.43-.59-2.17-.89-4.33-1.43-8.39-1.86-12.94-1.86-1.14 0-2.29 0-3.47-.01-.62 0-.62 0-3.77.01-1.32 0-2.64 0-4-.01h-10.83c-3.79.01-7.57 0-11.35 0-6.35 0-12.71 0-19.06.01h-22.02c-6.3-.01-12.61-.01-18.91-.01-3.77.01-7.53.01-11.3 0-4.19 0-8.39 0-12.59.01-1.24 0-2.49 0-3.77-.01-.57 0-.57 0-3.47.01h-3c-2.68.13-5.12.53-7.73 1.13 1.63 4.95 4.49 8.81 7.5 13 .54.75 1.08 1.51 1.63 2.29 3.98 5.55 8.12 10.95 12.31 16.35 9.02 11.73 17.21 24.14 25.56 36.36h2c.27.75.54 1.5.82 2.27 1.12 2.58 2.21 4.27 3.99 6.42 3.59 4.48 6.97 9.09 10.32 13.75.55.77 1.11 1.54 1.68 2.34 1.16 1.6 2.31 3.21 3.46 4.81 2.78 3.87 5.57 7.73 8.36 11.6.54.75 1.08 1.49 1.63 2.27 3.84 5.3 7.7 10.58 11.58 15.86 3.58 4.87 7.12 9.77 10.66 14.68 7.23 10.02 14.48 20.02 21.94 29.87 3.62 4.81 7.1 9.7 10.56 14.63 5.64 8.03 11.43 15.92 17.46 23.67 15.63 20.11 15.63 20.11 17.54 25.83-4.04 6.38-8.51 12.41-13.05 18.43-4 5.29-7.95 10.61-11.89 15.94-.29.4-.29.4-1.78 2.42-3.39 4.61-6.74 9.24-10.07 13.88-5.96 8.31-12.1 16.46-18.33 24.57-4.66 6.09-9.13 12.29-13.51 18.58-4.05 5.8-8.33 11.42-12.66 17.02-3.3 4.29-6.52 8.62-9.65 13.03-8.55 12.1-17.38 24-26.45 35.71-5.05 6.57-9.9 13.27-14.79 19.95l-8.82 11.97c-1.16 1.57-2.32 3.14-3.48 4.72l-7.23 9.81c-10.18 13.8-10.18 13.8-14.29 19.47-7.94 10.95-15.97 21.83-24.12 32.62-4.66 6.18-9.15 12.46-13.58 18.79-2.94 4.2-5.95 8.32-9.05 12.4-12.25 16.15-12.25 16.15-12.25 20.69 17.53.18 35.05.34 52.58.49 8.13.07 16.27.15 24.41.23 7.1.08 14.2.14 21.29.2 3.76.03 7.51.06 11.27.1 3.54.05 7.08.08 10.62.1 1.9.01 3.81.04 5.71.06 22.02.11 22.02.11 30.12-6.18 7.2-7.35 12.91-16.31 18.88-24.65 2.49-3.49 5.03-6.93 7.62-10.35 4.25-5.63 8.37-11.36 12.49-17.09 3.63-5.03 7.33-10.02 11.07-14.97 4.64-6.13 9.1-12.36 13.51-18.65 7.5-10.69 15.31-21.15 23.15-31.58 3.5-4.66 6.94-9.35 10.35-14.07 2.12-2.9 4.27-5.77 6.43-8.64 3.43-4.56 6.81-9.16 10.16-13.79 4.17-5.73 8.39-11.43 12.6-17.14 2.51-3.4 5.01-6.8 7.51-10.2.61-.84 1.23-1.68 1.86-2.54 1.17-1.58 2.33-3.17 3.49-4.75 3.87-5.26 7.85-10.44 11.88-15.58 10.77 2.69 20.53 23.03 27.19 32.16 2.06 2.82 4.13 5.62 6.21 8.42 5.5 7.41 10.94 14.83 16.1 22.48 4.52 6.68 9.39 13.03 14.38 19.37 5.76 7.34 11.16 14.89 16.5 22.55 6.06 8.67 12.23 17.2 18.69 25.57 6.17 8.01 12.05 16.23 17.93 24.45 12.46 17.39 12.46 17.39 18.19 24.75 3.79 4.88 7.42 9.84 10.99 14.87 4.43 6.25 8.95 12.43 13.51 18.59 1.26 1.72 2.51 3.44 3.76 5.16 7.72 10.51 14.17 18.36 27.55 20.63 1.98.09 3.96.12 5.94.13h11.7c3.76.01 7.52.01 11.27 0h11.8c6.6.01 13.2 0 19.8 0 7.64-.01 15.27 0 22.91 0 6.55.01 13.11.01 19.66 0h11.75c3.68.01 7.36.01 11.03 0h9.58c1.03 0 2.06-.01 3.13-.01 2.43-.12 2.43-.12 4.43-1.12-.63-3.26-1.78-5.47-3.66-8.2l-1.64-2.4c-.58-.83-1.16-1.67-1.76-2.53s-1.19-1.72-1.8-2.61c-3.51-5.04-7.15-9.9-11.07-14.64-2.75-3.48-5.28-7.11-7.82-10.75-4.42-6.32-8.95-12.55-13.61-18.71-3.92-5.19-7.79-10.42-11.64-15.66-4.92-6.7-9.88-13.36-14.88-20-3.45-4.59-6.83-9.22-10.2-13.87-5.12-7.03-10.39-13.95-15.73-20.82-3.82-4.92-7.44-9.96-11-15.06-4.65-6.67-9.5-13.15-14.47-19.58-3.35-4.35-6.61-8.75-9.78-13.23-5-7.08-10.2-14.01-15.42-20.93-2.45-3.25-4.89-6.5-7.33-9.76-3.27-4.36-6.54-8.72-9.82-13.07-6.7-8.9-13.32-17.84-19.81-26.88-3.11-4.33-6.29-8.59-9.56-12.8-4.44-5.71-8.68-11.55-12.9-17.42-8.31-11.57-16.78-23.02-25.35-34.39-3.83-5.1-7.64-10.21-11.37-15.38-.42-.56-.83-1.13-1.26-1.71-2.21-3.08-3.88-6.01-5.12-9.6 4.99-8.28 10.04-16.34 16.04-23.93 3.6-4.56 7.01-9.23 10.4-13.95 1.11-1.55 2.22-3.1 3.34-4.64.54-.76 1.08-1.52 1.64-2.29 2.34-3.25 4.71-6.47 7.08-9.69 8.32-11.32 16.55-22.7 24.63-34.19q6.225-8.865 12.66-17.58c3.58-4.86 7.12-9.76 10.65-14.67 4.13-5.73 8.31-11.42 12.56-17.06 9.05-12 17.77-24.24 26.41-36.54 4.37-6.19 8.86-12.28 13.38-18.37 3.85-5.21 7.62-10.47 11.34-15.78 4.32-6.17 8.76-12.22 13.31-18.23a837 837 0 0 0 10.94-14.89c4.54-6.32 9.12-12.62 13.75-18.88.58-.8 1.17-1.59 1.78-2.41 2.19-2.98 4.39-5.95 6.58-8.92 5.75-7.78 11.39-15.63 16.95-23.56 3.55-5.05 7.21-10 10.94-14.92 12.78-16.92 12.78-16.92 12.74-27.42v-2.47c.01-2.74 0-5.48-.01-8.22v-5.88c0-5.34 0-10.67-.01-16 0-5.57 0-11.14-.01-16.71 0-10.55-.01-21.1-.02-31.65-.01-12.01-.01-24.02-.02-36.03-.01-24.71-.03-49.41-.05-74.12z"/></svg>