<svg width="512" height="512" xmlns="http://www.w3.org/2000/svg">
 <title>CalcX</title>

 <g>
  <title>Layer 1</title>
  <path id="svg_1" d="m114.73618,16.88324l4.75704,0c2.76909,-0.00413 5.53817,-0.00413 8.30313,0c4.11643,0 8.23287,0 12.3493,-0.00413l22.06177,0q9.65254,0.0062 19.30508,0l6.50529,0c16.26735,0 32.53883,0 48.81032,0.00413l43.32174,0c16.24255,-0.00413 32.48924,-0.00413 48.73179,-0.00413l6.49289,0c6.43089,0.00413 12.85765,0 19.28855,0c7.31535,0 14.62656,0 21.94191,0.00413c4.0875,0 8.175,0 12.26251,-0.00413c2.73602,0 5.47205,0 8.20807,0.00413l4.66198,0c17.44525,-0.01653 17.44525,-0.01653 24.12825,1.1655c0.4133,0.07026 0.82659,0.14052 1.25229,0.21491c3.97178,0.7274 7.75344,1.82264 11.53511,3.21958l0.89272,0.3265c12.64274,4.73638 22.76437,12.42369 32.171,21.99151l0,0.82659l0.82659,0c16.35001,19.73491 19.91263,41.75948 19.89609,66.60273c-0.00413,1.62426 0,3.24851 0,4.86863c0.00413,2.83935 0.00413,5.67869 0.00413,8.51391l0,12.6634c0.00413,7.97662 0.00827,15.95738 0.00827,23.934l0,18.48675c0,1.77717 0.00413,3.55435 0.00413,5.33152l0,1.33908c0,12.41956 0.00413,24.83499 0.00413,37.25455l0,12.81219c0,14.80841 0,29.61683 0.00827,44.42524c0.00413,16.65585 0.00827,33.3117 0.00827,49.96755l0,6.65821c0,7.02604 0.00413,14.05621 0.00413,21.08225c0.00413,7.06737 0.00413,14.13474 0.00413,21.20211c-0.00413,4.19496 0,8.38579 0.00413,12.57661c0,2.81042 0,5.6167 -0.00413,8.42712c0,1.59119 0,3.18652 0.00413,4.78184c0.00827,5.79442 -0.0372,11.56817 -0.47116,17.35019c-0.02893,0.42156 -0.06199,0.84312 -0.09506,1.27709c-1.45067,17.13527 -9.09666,32.82401 -20.71029,45.31796c-0.73567,0.82246 -0.73567,0.82246 -1.56226,2.06235l-0.82659,0l0,0.82659l-0.82659,0l0,0.82659c-1.27709,1.05804 -2.56244,2.10781 -3.84779,3.15345c-0.46703,0.3761 -0.92992,0.75633 -1.39281,1.13657c-3.33944,2.71536 -6.7202,5.14554 -10.46467,7.28228c-0.23558,0.13639 -0.47529,0.27278 -0.71914,0.4133c-11.90294,6.82766 -24.66967,9.45209 -38.26712,9.73727c-0.38437,0.0124 -0.76873,0.02066 -1.16136,0.02893c-11.89054,0.25211 -23.78108,0.21078 -35.67162,0.20665l-10.83663,0c-7.06737,0.00413 -14.13887,0.00413 -21.21038,0l-24.82672,0c-15.65567,0.00413 -31.31548,0 -46.97115,0q-20.82394,-0.0062 -41.64789,0c-15.63914,0 -31.28241,0.00413 -46.92155,0l-24.79779,0q-10.54526,0.0062 -21.09052,0l-24.14478,0c-5.82335,0.00413 -11.63843,-0.04133 -17.45764,-0.23558c-0.48356,-0.0124 -0.96711,-0.02893 -1.46307,-0.04546c-18.47022,-0.67367 -35.32032,-7.93116 -48.93431,-20.37965c-0.85139,-0.77286 -1.71931,-1.51267 -2.60377,-2.25247c-11.2086,-9.86952 -18.6934,-24.34316 -22.03284,-38.74655c-0.06199,-0.26864 -0.12399,-0.53729 -0.19012,-0.81006c-1.21509,-5.67043 -1.50853,-11.46071 -1.61599,-17.24273c-0.00413,-0.35957 -0.0124,-0.71914 -0.02066,-1.08697c-0.24384,-11.49378 -0.19425,-22.98755 -0.19012,-34.48133l0,-10.57626c-0.00413,-6.90618 -0.00413,-13.80824 -0.00413,-20.71442c0.00413,-6.04239 0.00413,-12.08892 0.00413,-18.13132l0,-6.13332c-0.00413,-15.3209 0,-30.63767 0,-45.95857c0.00413,-13.55613 0.00413,-27.11638 0,-40.67664c-0.00413,-15.28784 -0.00413,-30.57567 0,-45.86765l0,-6.12505c0,-6.03413 0,-12.06412 -0.00413,-18.09825c0,-6.87312 0,-13.74624 0.00413,-20.6235l0,-10.48947c-0.00827,-24.05799 -0.00827,-24.05799 0.16532,-35.05581c0.0124,-0.83073 0.0248,-1.66558 0.03306,-2.50044c0.06613,-5.38939 0.58688,-10.56799 1.50853,-15.87885c0.09506,-0.56622 0.18598,-1.1283 0.28104,-1.69452c2.87241,-17.00715 12.83286,-31.93955 24.93004,-43.7681l0.82659,0l0,-0.82659c8.69163,-7.04671 17.82961,-12.61794 28.51746,-16.11856c0.46703,-0.16119 0.93405,-0.31824 1.41347,-0.48356c3.02533,-0.95885 6.10439,-1.53746 9.22891,-2.07475c0.38023,-0.07026 0.76047,-0.13639 1.1531,-0.21078c8.90654,-1.43001 18.16851,-1.01258 27.16185,-1.00431m326.39677,62.0482c-3.61221,4.79837 -7.18723,9.62568 -10.74571,14.46538c-1.00844,1.36801 -2.01275,2.73602 -3.0212,4.10817c-0.24384,0.33064 -0.48769,0.66127 -0.7398,1.00018c-1.29362,1.75651 -2.5955,3.50889 -3.90978,5.24887c-1.50853,2.00449 -2.97987,4.03377 -4.44294,6.07133c-2.34752,3.26091 -4.74051,6.48462 -7.16243,9.6918c-0.83486,1.10763 -1.66972,2.21527 -2.50044,3.32704c-0.87619,1.16963 -1.75238,2.33926 -2.6327,3.50889c-3.53782,4.69918 -7.01777,9.43969 -10.48947,14.18434a739.38743,739.38743 0 0 1 -5.47205,7.37321c-2.43432,3.25264 -4.82317,6.54248 -7.20789,9.83232c-1.74824,2.40539 -3.53369,4.77771 -5.32326,7.15416c-2.88481,3.83126 -5.74482,7.67492 -8.58417,11.53511c-1.58706,2.15741 -3.18652,4.30242 -4.79424,6.44329c-1.59119,2.11195 -3.16172,4.23629 -4.71158,6.37716c-3.23611,4.45534 -6.52182,8.87761 -9.83232,13.27922c-2.17394,2.88894 -4.31068,5.80268 -6.41849,8.74122c-1.93009,2.68643 -3.91805,5.33152 -5.91014,7.97662c-1.99622,2.64923 -3.94698,5.32326 -5.87708,8.01795c-1.40521,1.96316 -2.83935,3.89739 -4.29415,5.82335l0,0.82659l-0.82659,0c-0.23145,0.3265 -0.46289,0.65301 -0.69847,0.98778c-4.05857,5.71589 -8.20394,11.36979 -12.49809,16.91209c-1.00844,1.31015 -1.97556,2.6451 -2.92201,4.00484c-1.65319,-0.4133 -1.65319,-0.4133 -2.06648,-0.99191c-2.44258,-3.40143 -4.89343,-6.79873 -7.41454,-10.1423c-3.7486,-4.97609 -7.44347,-9.99764 -11.08048,-15.06052c-1.82677,-2.54177 -3.70314,-5.03395 -5.62083,-7.5096c-3.63288,-4.70745 -7.12523,-9.50995 -10.38201,-14.48604c-1.73585,-2.5955 -3.67834,-5.33152 -6.67474,-6.52182c-0.29757,-0.11986 -0.59101,-0.24384 -0.89685,-0.36783c-1.78957,-0.59101 -3.46756,-0.76873 -5.34806,-0.76873c-0.47116,0 -0.94645,0 -1.43414,-0.00413c-0.25624,0 -0.25624,0 -1.55813,0.00413c-0.54555,0 -1.0911,0 -1.65319,-0.00413l-4.476,0c-1.56639,0.00413 -3.12865,0 -4.69092,0c-2.62443,0 -5.253,0 -7.87743,0.00413l-9.10079,0c-2.60377,-0.00413 -5.21167,-0.00413 -7.81544,-0.00413c-1.55813,0.00413 -3.11212,0.00413 -4.67025,0c-1.73171,0 -3.46756,0 -5.2034,0.00413c-0.51249,0 -1.02911,0 -1.55813,-0.00413c-0.23558,0 -0.23558,0 -1.43414,0.00413l-1.23989,0c-1.10763,0.05373 -2.11608,0.21905 -3.19478,0.46703c0.67367,2.04582 1.8557,3.64114 3.09972,5.37285c0.22318,0.30997 0.44636,0.62408 0.67367,0.94645c1.64492,2.2938 3.35597,4.5256 5.08768,6.7574c3.72793,4.84797 7.11283,9.97698 10.56386,15.02746l0.82659,0c0.11159,0.30997 0.22318,0.61994 0.3389,0.93818c0.46289,1.0663 0.91339,1.76478 1.64905,2.65336c1.48373,1.85157 2.88068,3.75687 4.26522,5.68283c0.22731,0.31824 0.45876,0.63648 0.69434,0.96711c0.47942,0.66127 0.95471,1.32668 1.43001,1.98796c1.14896,1.59946 2.30206,3.19478 3.45516,4.79424c0.22318,0.30997 0.44636,0.61581 0.67367,0.93818c1.58706,2.19047 3.18238,4.37268 4.78597,6.55488c1.4796,2.01275 2.94267,4.03791 4.40574,6.06719c2.98813,4.14123 5.98453,8.2742 9.06773,12.34517c1.49613,1.98796 2.93441,4.00898 4.36441,6.04653c2.33099,3.31877 4.72398,6.57968 7.21616,9.78273c6.45982,8.31139 6.45982,8.31139 7.24922,10.67545c-1.66972,2.63683 -3.51715,5.12901 -5.39352,7.61705c-1.65319,2.18634 -3.28571,4.38508 -4.9141,6.58795c-0.11986,0.16532 -0.11986,0.16532 -0.73567,1.00018c-1.40108,1.9053 -2.78562,3.81886 -4.1619,5.73656c-2.46325,3.43449 -5.00089,6.80286 -7.57572,10.15469c-1.92596,2.51698 -3.7734,5.07941 -5.58364,7.67905c-1.67385,2.39712 -3.44276,4.71985 -5.23233,7.03431c-1.36388,1.77304 -2.69469,3.56262 -3.98831,5.38525c-3.53369,5.00089 -7.18309,9.91912 -10.93169,14.75882c-2.08715,2.71536 -4.09164,5.48444 -6.11266,8.24527l-3.64528,4.94716c-0.47942,0.64888 -0.95885,1.29775 -1.43827,1.95076l-2.98813,4.05444c-4.20736,5.70349 -4.20736,5.70349 -5.90601,8.04688c-3.28157,4.5256 -6.60035,9.02226 -9.96871,13.48173c-1.92596,2.55417 -3.78166,5.14967 -5.61257,7.76584c-1.21509,1.73585 -2.45911,3.43863 -3.74033,5.12488c-5.06288,6.67474 -5.06288,6.67474 -5.06288,8.5511c7.24509,0.07439 14.48604,0.14052 21.73113,0.20252c3.3601,0.02893 6.72433,0.06199 10.08857,0.09506c2.93441,0.03306 5.86881,0.05786 8.79908,0.08266c1.55399,0.0124 3.10386,0.0248 4.65785,0.04133c1.46307,0.02066 2.92614,0.03306 4.38921,0.04133c0.78526,0.00413 1.57466,0.01653 2.35992,0.0248c9.10079,0.04546 9.10079,0.04546 12.44849,-2.55417c2.97573,-3.03773 5.33566,-6.74087 7.80304,-10.18776c1.02911,-1.4424 2.07888,-2.86414 3.14932,-4.27762c1.75651,-2.32686 3.45929,-4.69505 5.16207,-7.06324c1.50027,-2.07888 3.02946,-4.14123 4.57519,-6.18705c1.9177,-2.53351 3.761,-5.10834 5.58364,-7.70798c3.09972,-4.41814 6.32757,-8.74122 9.56781,-13.0519c1.44654,-1.92596 2.86828,-3.86432 4.27762,-5.81508c0.87619,-1.19856 1.76478,-2.38472 2.6575,-3.57088c1.41761,-1.88463 2.81455,-3.7858 4.19909,-5.69936c1.72345,-2.36819 3.46756,-4.72398 5.20754,-7.0839c1.03737,-1.40521 2.07062,-2.81042 3.10386,-4.21562c0.25211,-0.34717 0.50835,-0.69434 0.76873,-1.04977c0.48356,-0.65301 0.96298,-1.31015 1.4424,-1.96316c1.59946,-2.17394 3.24438,-4.31482 4.90996,-6.43916c4.4512,1.11177 8.48498,9.51822 11.23753,13.29162c0.85139,1.1655 1.70691,2.32273 2.56657,3.47996c2.27313,3.06253 4.52146,6.12919 6.65407,9.29091c1.8681,2.76082 3.88085,5.38525 5.9432,8.00555c2.38059,3.0336 4.61239,6.15398 6.81939,9.31984c2.50458,3.58328 5.05462,7.1087 7.72451,10.56799c2.55004,3.3105 4.98022,6.7078 7.41041,10.1051c5.14967,7.18723 5.14967,7.18723 7.51786,10.22909c1.56639,2.01689 3.06666,4.06684 4.54213,6.14572c1.8309,2.5831 3.699,5.13728 5.58364,7.68318c0.52075,0.71087 1.03737,1.42174 1.55399,2.13261c3.19065,4.34375 5.85641,7.58812 11.38632,8.52631c0.81833,0.0372 1.63665,0.0496 2.45498,0.05373l4.83557,0c1.55399,0.00413 3.10799,0.00413 4.65785,0l4.8769,0c2.72776,0.00413 5.45551,0 8.18327,0c3.15759,-0.00413 6.31104,0 9.46862,0c2.70709,0.00413 5.41832,0.00413 8.12541,0l4.85623,0c1.52093,0.00413 3.04186,0.00413 4.55866,0l3.95938,0c0.4257,0 0.85139,-0.00413 1.29362,-0.00413c1.00431,-0.0496 1.00431,-0.0496 1.8309,-0.46289c-0.26038,-1.34735 -0.73567,-2.26073 -1.51267,-3.38903l-0.67781,-0.99191c-0.23971,-0.34304 -0.47942,-0.69021 -0.7274,-1.04564s-0.49182,-0.71087 -0.74393,-1.0787c-1.45067,-2.08301 -2.95507,-4.09164 -4.57519,-6.05066c-1.13657,-1.43827 -2.18221,-2.93854 -3.23198,-4.44294c-1.82677,-2.61203 -3.699,-5.18687 -5.62497,-7.73278c-1.62012,-2.14501 -3.21958,-4.30655 -4.81077,-6.47222c-2.03342,-2.76909 -4.08337,-5.52164 -6.14985,-8.26593c-1.42587,-1.89703 -2.82282,-3.81059 -4.21562,-5.73242c-2.11608,-2.90547 -4.29415,-5.76549 -6.50115,-8.60483c-1.57879,-2.03342 -3.07493,-4.11643 -4.54626,-6.22425c-1.92183,-2.75669 -3.92632,-5.43485 -5.9804,-8.09235c-1.38454,-1.79784 -2.73189,-3.61634 -4.04204,-5.46791c-2.06648,-2.92614 -4.21562,-5.79028 -6.37303,-8.6503c-1.01258,-1.34321 -2.02102,-2.68643 -3.02946,-4.03377c-1.35148,-1.80197 -2.70296,-3.60395 -4.05857,-5.40179c-2.76909,-3.67834 -5.50511,-7.37321 -8.1874,-11.10941c-1.28535,-1.78957 -2.59963,-3.55022 -3.95111,-5.2902c-1.83504,-2.35992 -3.58741,-4.77357 -5.33152,-7.19962c-3.43449,-4.78184 -6.93512,-9.51409 -10.47707,-14.21327c-1.58293,-2.10781 -3.15759,-4.21976 -4.69918,-6.3565c-0.17358,-0.23145 -0.34304,-0.46703 -0.52075,-0.70674c-0.91339,-1.27295 -1.60359,-2.48391 -2.11608,-3.96765c2.06235,-3.42209 4.1495,-6.75326 6.62928,-9.89019c1.48787,-1.88463 2.89721,-3.81473 4.29828,-5.76549c0.45876,-0.64061 0.91752,-1.28122 1.38041,-1.9177c0.22318,-0.31411 0.44636,-0.62821 0.67781,-0.94645c0.96711,-1.34321 1.94663,-2.67403 2.92614,-4.00484c3.43863,-4.67852 6.84006,-9.38183 10.17949,-14.13061q2.57277,-3.66387 5.23233,-7.26575c1.4796,-2.00862 2.94267,-4.03377 4.40161,-6.06306c1.70691,-2.36819 3.43449,-4.71985 5.191,-7.05084c3.74033,-4.95956 7.34428,-10.01831 10.91516,-15.10185c1.80611,-2.55831 3.66181,-5.07528 5.52991,-7.59226c1.59119,-2.15327 3.14932,-4.32721 4.68678,-6.52182c1.78544,-2.55004 3.62048,-5.05048 5.50098,-7.5344a345.92917,345.92917 0 0 0 4.52146,-6.15398c1.87637,-2.61203 3.76926,-5.2158 5.68283,-7.80304c0.23971,-0.33064 0.48356,-0.65714 0.73567,-0.99604c0.90512,-1.23162 1.81437,-2.45911 2.71949,-3.6866c2.37645,-3.21545 4.70745,-6.45982 7.00538,-9.73727c1.4672,-2.08715 2.97987,-4.13296 4.52146,-6.16638c5.28193,-6.99298 5.28193,-6.99298 5.2654,-11.33259l0,-1.02084c0.00413,-1.13243 0,-2.26486 -0.00413,-3.3973l0,-2.43018c0,-2.207 0,-4.40987 -0.00413,-6.61274c0,-2.30206 0,-4.60412 -0.00413,-6.90618c0,-4.36028 -0.00413,-8.72056 -0.00827,-13.08083c-0.00413,-4.96369 -0.00413,-9.92738 -0.00827,-14.89107c-0.00413,-10.21256 -0.0124,-20.42098 -0.02066,-30.63354l-1.23989,0z" fill="#56aaff"/>
 </g>
</svg>